<?xml version="1.0" encoding="UTF-8" standalone="no"?>
<!-- Created with Inkscape (http://www.inkscape.org/) -->

<svg
   xmlns:dc="http://purl.org/dc/elements/1.1/"
   xmlns:cc="http://creativecommons.org/ns#"
   xmlns:rdf="http://www.w3.org/1999/02/22-rdf-syntax-ns#"
   xmlns:svg="http://www.w3.org/2000/svg"
   xmlns="http://www.w3.org/2000/svg"
   xmlns:sodipodi="http://sodipodi.sourceforge.net/DTD/sodipodi-0.dtd"
   xmlns:inkscape="http://www.inkscape.org/namespaces/inkscape"
   width="250"
   height="250"
   id="svg2"
   version="1.1"
   inkscape:version="0.48.4 r9939"
   sodipodi:docname="logo.svg">
  <defs
     id="defs4" />
  <sodipodi:namedview
     id="base"
     pagecolor="#ffffff"
     bordercolor="#666666"
     borderopacity="1.0"
     inkscape:pageopacity="0.0"
     inkscape:pageshadow="2"
     inkscape:zoom="1"
     inkscape:cx="366.70273"
     inkscape:cy="163.51752"
     inkscape:document-units="px"
     inkscape:current-layer="text3092"
     showgrid="false"
     showguides="false"
     inkscape:guide-bbox="true"
     inkscape:window-width="1301"
     inkscape:window-height="744"
     inkscape:window-x="65"
     inkscape:window-y="24"
     inkscape:window-maximized="1"
     fit-margin-top="15"
     fit-margin-left="15"
     fit-margin-right="15"
     fit-margin-bottom="15">
    <sodipodi:guide
       orientation="0,1"
       position="228.13301,386.15135"
       id="guide2999" />
    <sodipodi:guide
       orientation="0,1"
       position="-39.00984,160.43707"
       id="guide3001" />
    <sodipodi:guide
       orientation="0,1"
       position="-43.295554,131.86564"
       id="guide3003" />
    <sodipodi:guide
       orientation="0,1"
       position="399.92862,56.654748"
       id="guide3072" />
    <sodipodi:guide
       orientation="0,1"
       position="317.09611,-76.685382"
       id="guide3074" />
    <sodipodi:guide
       orientation="1,0"
       position="129.20774,268.78679"
       id="guide3076" />
    <sodipodi:guide
       orientation="1,0"
       position="634.28401,160.43707"
       id="guide3078" />
    <sodipodi:guide
       orientation="0,1"
       position="574.68501,-118.10164"
       id="guide3084" />
    <sodipodi:guide
       orientation="0,1"
       position="613.07081,-211.03567"
       id="guide3086" />
    <sodipodi:guide
       orientation="0,1"
       position="354.91873,-169.20579"
       id="guide3088" />
  </sodipodi:namedview>
  <metadata
     id="metadata7">
    <rdf:RDF>
      <cc:Work
         rdf:about="">
        <dc:format>image/svg+xml</dc:format>
        <dc:type
           rdf:resource="http://purl.org/dc/dcmitype/StillImage" />
        <dc:title />
      </cc:Work>
    </rdf:RDF>
  </metadata>
  <g
     inkscape:label="Layer 1"
     inkscape:groupmode="layer"
     id="layer1"
     transform="translate(-6.1526971,-325.65645)">
    <g
       id="g3140"
       transform="matrix(0.30908486,0,0,0.30908486,12.596575,288.20251)">
      <path
         inkscape:connector-curvature="0"
         id="path3005"
         d="M 134.28571,415.21932 170,189.50504 l 420,0 50,225.71428 104.28571,0 1.42858,28.57143 -724.285719,0 0,-28.57143 z"
         style="fill:#000000;stroke:#000000;stroke-width:1px;stroke-linecap:butt;stroke-linejoin:miter;stroke-opacity:1" />
      <path
         inkscape:connector-curvature="0"
         id="path3080"
         d="m 135.36044,519.00164 505.07627,0 -44.44671,133.34013 -143.44166,0 -51.83405,-96.40816 -42.85715,0.71429 -34.60833,95.69387 -150.39167,0 -37.4967,-133.34013"
         style="fill:#000000;stroke:#000000;stroke-width:1px;stroke-linecap:butt;stroke-linejoin:miter;stroke-opacity:1" />
      <path
         inkscape:connector-curvature="0"
         id="path3090"
         d="m 293.95439,693.75803 -5.05076,92.93403 12.52494,0 7.14286,-41.82988 158.92857,0 10.71429,41.82988 15.71428,0 -13.57143,-92.93403 z"
         style="fill:#000000;stroke:#000000;stroke-width:1px;stroke-linecap:butt;stroke-linejoin:miter;stroke-opacity:1" />
      <g
         style="font-size:420.15158081px;font-style:normal;font-variant:normal;font-weight:normal;font-stretch:normal;line-height:125%;letter-spacing:0px;word-spacing:0px;fill:#000000;fill-opacity:1;stroke:none;font-family:Roboto;-inkscape-font-specification:Roboto"
         id="text3092">
        <path
           d="M 157.16855,862.18806 C 130.3619,854.52898 111.48792,842.63017 100.54656,826.49159 89.605052,810.4897 84.134333,790.58996 84.13439,766.79232 l 0,-42.46649 C 84.134333,708.59757 80.646751,696.49361 73.671631,688.0139 66.696419,679.53438 55.686599,675.29458 40.642137,675.29447 l 0,-29.33676 c 15.044462,1.4e-4 26.054282,-4.17128 33.029494,-12.51428 6.97512,-8.34269 10.462702,-20.44666 10.462759,-36.31193 l 0,-42.67164 c -5.7e-5,-23.7974 5.402278,-43.69713 16.20702,-59.69928 10.94136,-16.13832 29.88372,-28.03714 56.82714,-35.69647 l 7.79578,23.18219 c -15.72845,5.06072 -26.80665,13.74549 -33.23464,26.05432 -6.4282,12.17263 -9.64225,27.55903 -9.64215,46.15924 l 0,42.67164 c -1e-4,14.63436 -2.80384,27.35378 -8.41124,38.1583 -5.60757,10.80482 -14.360723,19.28443 -26.259476,25.43886 11.898753,6.29146 20.651906,14.83945 26.259476,25.64402 5.6074,10.80477 8.41114,23.45581 8.41124,37.95315 l 0,42.46649 c -1e-4,18.46369 3.21395,33.78171 9.64215,45.95408 6.42799,12.30909 17.50619,20.99385 33.23464,26.05432 l -7.79578,23.38734"
           style=""
           id="path3006" />
      </g>
      <text
         sodipodi:linespacing="125%"
         id="text3092-0"
         y="869.52966"
         x="85.323418"
         style="font-size:420.15158081px;font-style:normal;font-variant:normal;font-weight:normal;font-stretch:normal;line-height:125%;letter-spacing:0px;word-spacing:0px;fill:#000000;fill-opacity:1;stroke:none;font-family:Roboto;-inkscape-font-specification:Roboto"
         xml:space="preserve"><tspan
           y="869.52966"
           x="85.323418"
           id="tspan3094-1"
           sodipodi:role="line" /></text>
      <g
         style="font-size:420.15158081px;font-style:normal;font-variant:normal;font-weight:normal;font-stretch:normal;line-height:125%;letter-spacing:0px;word-spacing:0px;fill:#000000;fill-opacity:1;stroke:none;font-family:Roboto;-inkscape-font-specification:Roboto"
         id="text3117">
        <path
           d="m 611.41028,838.80072 c 15.59154,-5.06047 26.66975,-13.74523 33.23465,-26.05432 6.56482,-12.17237 9.84725,-27.49039 9.8473,-45.95408 l 0,-42.46649 c -5e-5,-15.04442 2.94046,-27.9006 8.82154,-38.5686 6.01774,-10.6678 15.52311,-18.94227 28.51615,-24.82341 -12.99304,-5.74413 -22.49841,-14.01859 -28.51615,-24.82341 -5.88108,-10.80452 -8.82159,-23.79748 -8.82154,-38.97891 l 0,-42.67164 c -5e-5,-18.60021 -3.28248,-33.98661 -9.8473,-46.15924 -6.42813,-12.30883 -17.43795,-20.9936 -33.0295,-26.05432 l 7.79578,-23.18219 c 26.80651,7.65933 45.68049,19.48976 56.62199,35.49132 10.94137,16.00214 16.41209,35.97027 16.41218,59.90443 l 0,42.67164 c -9e-5,15.86527 3.41911,27.96924 10.2576,36.31193 6.97507,8.343 18.05328,12.51442 33.23465,12.51428 l 0,29.33676 c -15.18137,1.1e-4 -26.25958,4.23991 -33.23465,12.71943 -6.83849,8.47971 -10.25769,20.58367 -10.2576,36.31193 l 0,42.46649 c -9e-5,23.79764 -5.47081,43.69738 -16.41218,59.69927 -10.9415,16.13858 -29.81548,28.03739 -56.62199,35.69647 l -8.00093,-23.38734"
           style=""
           id="path3003" />
      </g>
    </g>
  </g>
</svg>
